<?xml version="1.0" standalone="no"?>
<!DOCTYPE svg PUBLIC "-//W3C//DTD SVG 20010904//EN"
 "http://www.w3.org/TR/2001/REC-SVG-20010904/DTD/svg10.dtd">
<svg version="1.0" xmlns="http://www.w3.org/2000/svg"
 width="700.000000pt" height="700.000000pt" viewBox="0 0 700.000000 700.000000"
 preserveAspectRatio="xMidYMid meet">
<metadata>
Created by potrace 1.14, written by Peter Selinger 2001-2017
</metadata>
<g transform="translate(0.000000,700.000000) scale(0.100000,-0.100000)"
fill="#000000" stroke="none">
<path d="M2744 6979 c2 -13 16 -69 30 -124 15 -55 29 -111 31 -125 3 -14 11
-48 19 -76 14 -52 13 -83 -4 -184 -58 -348 -314 -956 -707 -1680 -138 -254
-415 -726 -605 -1030 -98 -158 -133 -219 -202 -353 -108 -210 -234 -541 -259
-682 -3 -16 -8 -41 -12 -55 -64 -272 -65 -616 -1 -895 128 -552 507 -1037
1091 -1395 160 -98 368 -192 600 -273 72 -25 167 -59 213 -76 45 -17 82 -28
82 -25 0 3 -63 132 -139 287 -130 264 -201 416 -201 432 0 4 -6 21 -14 38 -79
180 -161 480 -190 694 -18 139 -24 352 -11 453 3 25 8 68 11 95 9 78 32 181
64 292 45 152 165 434 185 432 11 -1 210 -239 321 -385 48 -64 104 -156 156
-259 44 -88 81 -161 82 -162 5 -6 192 317 221 381 48 107 123 320 139 400 3
11 7 30 10 41 14 59 36 176 41 220 4 28 8 61 10 75 18 127 23 384 11 513 -4
37 -4 67 -2 67 5 0 42 -38 116 -121 54 -60 214 -262 261 -329 260 -373 425
-785 466 -1165 10 -92 10 -340 0 -439 -14 -143 -80 -416 -126 -521 -5 -11 -21
-51 -37 -90 -44 -109 -134 -279 -210 -398 -38 -60 -77 -121 -87 -137 l-18 -29
78 -92 c43 -51 90 -106 105 -123 l28 -30 42 24 c63 35 297 183 316 200 9 9 33
26 52 40 19 13 69 51 110 84 191 154 357 315 500 486 30 36 57 67 60 70 3 3
26 32 50 65 350 470 534 943 585 1505 6 68 6 368 0 435 -17 193 -63 463 -99
590 -2 6 -6 24 -11 40 -48 189 -159 451 -290 690 -393 715 -1178 1527 -2090
2160 -149 104 -297 195 -515 318 -107 60 -210 118 -228 129 l-33 20 5 -23z
m524 -681 c96 -65 315 -225 461 -337 49 -38 269 -219 281 -231 3 -3 43 -39 90
-80 660 -582 1170 -1247 1390 -1811 58 -149 124 -391 144 -524 2 -16 7 -41 10
-55 33 -138 40 -581 12 -750 -3 -14 -7 -43 -10 -65 -3 -22 -7 -49 -10 -60 -2
-11 -13 -62 -25 -112 -45 -207 -134 -430 -260 -655 -60 -110 -156 -249 -254
-371 -72 -89 -280 -307 -351 -367 -26 -22 -28 -23 -22 -5 78 201 133 405 152
560 4 28 8 53 10 56 5 10 15 178 17 284 6 615 -247 1255 -727 1835 -169 205
-432 466 -582 577 -280 210 -426 314 -430 310 -2 -2 25 -104 60 -228 103 -358
127 -462 142 -589 2 -19 8 -69 13 -110 9 -75 7 -422 -3 -470 -2 -14 -7 -47
-11 -75 -13 -107 -81 -395 -97 -411 -2 -1 -43 47 -92 107 -49 60 -97 117 -105
127 -9 9 -45 51 -81 92 -36 41 -69 80 -75 86 -5 6 -44 48 -85 94 -41 46 -96
106 -121 133 l-46 50 -97 -162 c-84 -140 -187 -334 -239 -451 -73 -166 -152
-422 -172 -565 -3 -22 -8 -45 -10 -51 -10 -30 -20 -214 -19 -354 0 -192 10
-296 45 -466 40 -200 98 -401 158 -552 11 -29 21 -55 21 -58 0 -9 -65 29 -165
96 -307 207 -553 475 -694 757 -114 228 -164 435 -165 688 -1 190 5 258 38
420 20 96 72 273 101 340 7 17 29 69 49 118 73 173 145 304 363 657 459 743
799 1384 1040 1960 72 172 181 493 209 613 10 42 22 77 27 77 4 0 57 -32 115
-72z"/>
</g>
</svg>
